<svg width="39" height="38" viewBox="0 0 39 38" fill="none" xmlns="http://www.w3.org/2000/svg">
<path d="M13.333 4.30005C13.333 4.54005 13.303 4.76505 13.243 4.99005C13.048 5.83005 12.493 6.55005 11.743 6.94005C11.323 7.18005 10.843 7.30005 10.333 7.30005C10.108 7.30005 9.89802 7.27005 9.68802 7.22505C8.33802 6.92505 7.33301 5.72505 7.33301 4.30005C7.33301 2.65005 8.66801 1.30005 10.333 1.30005C11.998 1.30005 13.333 2.65005 13.333 4.30005Z" fill="#E03C00" stroke="#E03C00" stroke-width="2.25" stroke-linecap="round" stroke-linejoin="round"/>
<path d="M7.33301 31.465C7.33301 31.465 7.33304 31.615 7.31804 31.69C7.21304 33.235 5.90801 34.465 4.33301 34.465C2.66801 34.465 1.33301 33.115 1.33301 31.465C1.33301 29.815 2.66801 28.465 4.33301 28.465C4.55801 28.465 4.76804 28.495 4.97804 28.54C5.54804 28.66 6.07303 28.945 6.46303 29.35C6.71803 29.62 6.92803 29.92 7.07803 30.265C7.24303 30.64 7.33301 31.045 7.33301 31.465Z" stroke="#E03C00" stroke-width="2.25" stroke-linecap="round" stroke-linejoin="round"/>
<path d="M37.333 33.7C37.333 35.35 35.983 36.7 34.333 36.7C32.683 36.7 31.333 35.35 31.333 33.7C31.333 33.625 31.333 33.55 31.333 33.475C31.363 32.92 31.558 32.41 31.858 31.975H31.873C32.263 31.405 32.848 30.985 33.553 30.805C33.793 30.73 34.048 30.7 34.318 30.7C35.968 30.7 37.318 32.05 37.318 33.7H37.333Z" fill="#E03C00" stroke="#E03C00" stroke-width="2.25" stroke-linecap="round" stroke-linejoin="round"/>
<path d="M30.6582 8.42505C30.6582 9.80505 29.7132 10.975 28.4232 11.32C28.1832 11.395 27.9282 11.425 27.6582 11.425C27.2382 11.425 26.8482 11.335 26.4882 11.185C26.1282 11.035 25.7982 10.81 25.5282 10.54C24.9882 10 24.6582 9.25005 24.6582 8.42505C24.6582 8.18505 24.6882 7.96005 24.7482 7.73505C25.0482 6.41505 26.2332 5.42505 27.6582 5.42505C29.3082 5.42505 30.6582 6.77505 30.6582 8.42505Z" stroke="#E03C00" stroke-width="2.25" stroke-linecap="round" stroke-linejoin="round"/>
<path d="M11.7432 6.94006L17.7432 18.2201L19.5432 21.6101" stroke="#E03C00" stroke-width="2.25" stroke-linecap="round" stroke-linejoin="round"/>
<path d="M6.46289 29.35L17.7429 18.22L25.5279 10.54" stroke="#E03C00" stroke-width="2.25" stroke-linecap="round" stroke-linejoin="round"/>
<path d="M31.8734 31.975L23.3984 25.975" stroke="#E03C00" stroke-width="2.25" stroke-linecap="round" stroke-linejoin="round"/>
<path d="M33.5679 30.805L28.4229 11.32" stroke="#E03C00" stroke-width="2.25" stroke-linecap="round" stroke-linejoin="round"/>
<path d="M9.68849 7.22504L4.97852 28.54" stroke="#E03C00" stroke-width="2.25" stroke-linecap="round" stroke-linejoin="round"/>
<path d="M24.7482 7.73499L13.2432 4.98999" stroke="#E03C00" stroke-width="2.25" stroke-linecap="round" stroke-linejoin="round"/>
<path d="M18.2081 25.45L7.07812 30.265" stroke="#E03C00" stroke-width="2.25" stroke-linecap="round" stroke-linejoin="round"/>
<path d="M26.4881 11.185L22.123 21.49" stroke="#E03C00" stroke-width="2.25" stroke-linecap="round" stroke-linejoin="round"/>
<path d="M23.9531 24.25C23.9531 24.895 23.7431 25.495 23.3981 25.975C22.8581 26.755 21.9581 27.25 20.9531 27.25C19.7231 27.25 18.6731 26.515 18.2081 25.45C18.0431 25.09 17.9531 24.685 17.9531 24.25C17.9531 23.11 18.5981 22.105 19.5431 21.61C19.9631 21.37 20.4431 21.25 20.9531 21.25C21.3581 21.25 21.7631 21.34 22.1231 21.49C23.1881 21.94 23.9531 23.02 23.9531 24.25Z" fill="#E03C00" stroke="#E03C00" stroke-width="2.25" stroke-linecap="round" stroke-linejoin="round"/>
<path d="M31.3483 33.4751L7.31836 31.6901" stroke="#E03C00" stroke-width="2.25" stroke-linecap="round" stroke-linejoin="round"/>
</svg>
